# xmcd
#
# Track frame offsets:
#	150
#	18540
#	40837
#	59160
#	77145
#	92625
#	109180
#	125292
#	146397
#	162902
#	182810
#	205130
#	227940
#
# Disc length: 3153 seconds
#
# Revision: 0
# Processed by: cddbd v1.5.1PL0 Copyright (c) Steve Scherf et al.
# Submitted via: audiograbber 1.83.01
#
DISCID=b20c4f0d
DTITLE=Vonda Shepard - By 7:30
DYEAR=1999
DGENRE=
TTITLE0=By 7:30
TTITLE1=Mercy
TTITLE2=Clear
TTITLE3=Sail on by
TTITLE4=Confetti
TTITLE5=Cross to bear
TTITLE6=This is crazy now
TTITLE7=Baby, don't you break my heart slow
TTITLE8=You and me
TTITLE9=Venus is breaking
TTITLE10=Newspaper wife
TTITLE11=Soothe me
TTITLE12=Souvenir
EXTD=
EXTT0=
EXTT1=
EXTT2=
EXTT3=
EXTT4=
EXTT5=
EXTT6=
EXTT7=
EXTT8=
EXTT9=
EXTT10=
EXTT11=
EXTT12=
PLAYORDER=
